<svg xmlns="http://www.w3.org/2000/svg" version="1.1" xmlns:xlink="http://www.w3.org/1999/xlink" xmlns:svgjs="http://svgjs.com/svgjs" width="100%" height="100%" viewBox="0 0 1000 600"><rect width="1000" height="600" x="0" y="0" fill="#ffffff"/><g><rect width="333.3333333333333" height="333.3333333333333" rx="13.333333333333334" ry="13.333333333333334" y="116.4457045972703" fill="#45526c" transform="matrix(1.32663314996041,0,0,1.3266331499604103,0,-75.58628085209295)" x="94.22348785400389"/><path d="M167.0321139651366 358.11237104381104L167.0321139651366 358.11237104381104Q146.69020132463265 358.11237104381104 131.6498636499258 348.863427761089Q116.60952597521894 339.6432973857898 108.42666026714087 322.8453723582915Q100.21498165164 306.04744733079326 100.21498165164 282.9971213925452L100.21498165164 282.9971213925452Q100.21498165164 259.9756083617199 108.31140863744963 243.1776833342216Q116.40783562325926 226.37975830672335 131.44817329796615 217.2460666536925Q146.488510972673 208.11237500066173 167.0321139651366 208.11237500066173L167.0321139651366 208.11237500066173Q187.77740730955986 208.11237500066173 202.8177449842667 217.2460666536925Q217.85808265897356 226.37975830672335 226.04094836705167 243.06243170453038Q234.22381407512972 259.7739180097602 234.22381407512972 282.7954310405855L234.22381407512972 282.7954310405855Q234.22381407512972 305.8169440714107 225.92569673736045 322.7301207286003Q217.62757939959113 339.6432973857898 202.58724172488422 348.863427761089Q187.54690405017737 358.11237104381104 167.0321139651366 358.11237104381104ZM167.0321139651366 342.956781739413L167.0321139651366 342.956781739413Q190.45700769988122 342.956781739413 203.3363773178773 327.19612137913583Q216.1869340284506 311.43546101885875 216.1869340284506 282.9971213925452L216.1869340284506 282.9971213925452Q216.1869340284506 254.58759467365442 203.3363773178773 238.91337303564572Q190.45700769988122 223.26796430505985 167.0321139651366 223.26796430505985L167.0321139651366 223.26796430505985Q143.98178802688852 223.26796430505985 131.13123131631522 238.91337303564572Q118.28067460574192 254.58759467365442 118.28067460574192 282.9971213925452L118.28067460574192 282.9971213925452Q118.28067460574192 311.233770666899 131.13123131631522 327.0808697494446Q143.98178802688852 342.956781739413 167.0321139651366 342.956781739413ZM312.018664116717 358.11237104381104L312.018664116717 358.11237104381104Q297.0935780717013 358.11237104381104 283.92607937947713 354.481944708537Q270.7585806872529 350.8515183732629 261.19269542288 343.7923560546745L261.19269542288 343.7923560546745Q257.8792110692568 341.5161363682725 257.27414001337775 338.404342366609Q256.64025605007595 335.2925483649455 257.99446269894804 332.5841350672013Q259.3486693478201 329.90453467688 262.02826973814143 328.9537087319273Q264.73668303588556 328.03169569439734 268.2518577414684 330.30791538079933L268.2518577414684 330.30791538079933Q277.58723974645886 337.1653873474282 288.1615767706302 340.04667808970913Q298.7647267022243 342.956781739413 312.018664116717 342.956781739413L312.018664116717 342.956781739413Q330.68942812669786 342.956781739413 339.73668105746026 336.0128710505157Q348.7551210807998 329.0689603616185 348.7551210807998 317.6590490221857L348.7551210807998 317.6590490221857Q348.7551210807998 308.5253573691549 342.2145910958219 303.1373436810894Q335.67406111084404 297.74932999302393 320.31678145448626 294.63753599136044L320.31678145448626 294.63753599136044L298.7647267022243 290.25797406309323Q279.2583883769819 286.1089153942087 269.6060643903405 276.68709466694975Q259.95374040369916 267.23646103226804 259.95374040369916 251.47580067199092L259.95374040369916 251.47580067199092Q259.95374040369916 238.39474070203514 266.6959607406367 228.65597799312533Q273.43818107757426 218.91721528421553 285.4819763803088 213.5003886887272Q297.49695877562067 208.11237500066173 313.2864320433206 208.11237500066173L313.2864320433206 208.11237500066173Q326.33867910585354 208.11237500066173 337.6621517230179 211.7428013359358Q348.9568114327595 215.3732276712099 358.0905030857903 222.63408034175802L358.0905030857903 222.63408034175802Q361.00060673549405 224.91030002816 361.5192390691047 227.93565530755507Q362.0378714027152 230.93219767952732 360.56841312415196 233.4389206253118Q359.1277677530115 235.91683066367347 356.4193544552673 236.63715334924373Q353.7397540649459 237.35747603481397 349.99407609998065 235.08125634841198L349.99407609998065 235.08125634841198Q341.6959587622113 228.65597799312533 332.67751873887175 225.94756469538117Q323.6590787155322 223.26796430505985 313.05592878393816 223.26796430505985L313.05592878393816 223.26796430505985Q296.690197367782 223.26796430505985 286.92262175144936 230.84575895725888Q277.18385904253955 238.39474070203514 277.18385904253955 250.84191670868907L277.18385904253955 250.84191670868907Q277.18385904253955 260.8111826769814 283.29219541617533 266.63138997638896Q289.42934469723383 272.42278436837387 303.3171660750283 275.13119766611794L303.3171660750283 275.13119766611794L324.89803373471307 279.68363703892203Q345.845017431096 284.03438605976635 355.90072212165666 292.8511357311462Q365.95642681221744 301.66788540252605 365.95642681221744 316.8234747069242L365.95642681221744 316.8234747069242Q365.95642681221744 329.0689603616185 359.44470973466235 338.404342366609Q352.9041797496845 347.7397243715994 340.7739457246814 352.9260477077052Q328.61489879225553 358.11237104381104 312.018664116717 358.11237104381104ZM385.0593844335405 356.8734160246302L378.2019124669118 357.4784870805092Q374.25454414998666 357.68017743246895 372.093576093276 355.40395774606696Q369.90379512914234 353.12773805966486 369.90379512914234 349.8142537060418L369.90379512914234 349.8142537060418Q369.90379512914234 347.3075307602573 371.45969212997414 345.3482530555062Q373.01558913080584 343.38897535075506 376.329073484429 342.956781739413L376.329073484429 342.956781739413L382.7831647471385 342.55340103549366Q393.35750177130984 341.71782672023215 398.947205811335 335.1772967352542Q404.5657227587829 328.6367667502763 404.5657227587829 317.2268554108435L404.5657227587829 317.2268554108435L404.5657227587829 217.2460666536925Q404.5657227587829 208.54456861200387 413.0655304485119 208.54456861200387L413.0655304485119 208.54456861200387Q421.56533813824086 208.54456861200387 421.56533813824086 217.2460666536925L421.56533813824086 217.2460666536925L421.56533813824086 317.45735867022603Q421.56533813824086 335.49423871690516 412.22995613325037 345.54994340746583Q402.8945741282599 355.6056480980266 385.0593844335405 356.8734160246302L385.0593844335405 356.8734160246302Z " fill="#ffffff" transform="matrix(1.32663314996041,0,0,1.3266331499604103,0,-75.58628085209295)"/><path d="M585.8901520064378 358.1123737786066L585.8901520064378 358.1123737786066Q551.7992432439291 358.1123737786066 531.3446979864236 336.90025277082333Q510.8901527289184 315.8775257006095 510.8901527289184 283.11237450108706L510.8901527289184 283.11237450108706Q510.8901527289184 250.3472233015647 531.3446979864236 229.13510229378142Q551.7992432439291 208.11237522356762 585.8901520064378 208.11237522356762L585.8901520064378 208.11237522356762Q619.9810607689467 208.11237522356762 639.678030276174 229.13510229378142Q659.5643937209709 250.3472233015647 659.5643937209709 283.11237450108706L659.5643937209709 283.11237450108706Q659.5643937209709 315.8775257006095 639.678030276174 336.90025277082333Q619.9810607689467 358.1123737786066 585.8901520064378 358.1123737786066Z " fill="#45526c" transform="matrix(1.32663314996041,0,0,1.3266331499604103,0,-75.58628085209295)"/></g></svg>